<?xml version="1.0" standalone="no"?>
<!DOCTYPE svg PUBLIC "-//W3C//DTD SVG 20010904//EN"
 "http://www.w3.org/TR/2001/REC-SVG-20010904/DTD/svg10.dtd">
<svg version="1.0" xmlns="http://www.w3.org/2000/svg"
 width="402.000000pt" height="318.000000pt" viewBox="0 0 402.000000 318.000000"
 preserveAspectRatio="xMidYMid meet">

<g transform="translate(0.000000,318.000000) scale(0.100000,-0.100000)"
fill="#000000" stroke="none">
<path d="M0 1590 l0 -1590 2010 0 2010 0 0 1590 0 1590 -2010 0 -2010 0 0
-1590z m2154 980 c342 -87 601 -364 661 -705 34 -196 8 -378 -78 -550 -87
-175 -245 -329 -420 -410 -437 -202 -952 -23 -1167 405 -78 156 -113 348 -91
506 59 419 375 727 801 778 64 7 221 -5 294 -24z m-1054 -1361 c0 -6 -14 -31
-31 -55 -17 -25 -28 -48 -25 -51 3 -3 25 0 50 6 58 14 76 14 76 -2 0 -18 -140
-49 -157 -35 -20 16 -16 26 28 95 37 56 59 72 59 42z m1723 15 c3 -4 -1 -17
-10 -30 -9 -14 -14 -26 -12 -28 2 -1 25 -17 52 -35 26 -18 45 -36 42 -42 -10
-15 -24 -11 -69 21 -43 29 -44 29 -61 10 -20 -22 -35 -26 -35 -10 0 14 71 120
80 120 4 0 9 -3 13 -6z m-1555 -216 c28 -27 30 -80 2 -108 -48 -48 -140 -13
-140 55 0 76 80 106 138 53z m1429 -20 l43 -42 35 34 c35 34 54 36 37 3 -6
-10 -24 -31 -41 -47 l-30 -29 -56 47 c-55 47 -61 57 -48 69 11 11 16 9 60 -35z
m-78 -70 c17 -23 31 -50 31 -59 0 -26 -41 -67 -73 -75 -24 -5 -33 0 -67 36
-22 24 -40 49 -40 57 0 25 27 13 51 -22 30 -43 54 -52 80 -29 25 22 24 23 -10
75 -28 41 -31 59 -11 59 4 0 22 -19 39 -42z m-1233 -35 c6 -34 8 -35 43 -29
61 9 70 -9 13 -28 -30 -10 -57 -27 -66 -42 -9 -13 -23 -24 -31 -24 -19 0 -19
4 0 41 11 21 14 43 9 79 -6 44 -4 50 9 44 9 -3 19 -22 23 -41z m1041 -105 c57
-56 65 -74 32 -65 -28 8 -70 -9 -91 -36 -9 -12 -19 -19 -23 -16 -3 4 -9 39
-12 79 -5 56 -3 74 8 81 24 15 32 11 86 -43z m-836 22 c16 -9 19 -22 19 -85 0
-59 -3 -75 -15 -75 -8 0 -19 8 -24 19 -11 20 -53 35 -88 32 -34 -3 -29 8 29
66 59 60 53 56 79 43z m662 -57 c-17 -111 -18 -116 -40 -124 -19 -7 -28 0 -67
56 -26 35 -46 66 -46 69 0 3 8 6 18 6 9 -1 33 -22 52 -48 l34 -47 9 50 c10 67
14 75 31 75 11 0 13 -9 9 -37z m-429 -14 c25 -20 35 -49 17 -49 -4 0 -20 11
-35 25 -31 29 -48 31 -70 9 -35 -35 -2 -103 43 -89 25 7 27 20 6 29 -30 11
-14 23 23 17 35 -6 37 -8 34 -41 -2 -19 -5 -36 -6 -37 -1 -1 -28 2 -61 6 -43
6 -63 14 -78 32 -21 27 -17 71 10 101 22 25 83 24 117 -3z m224 -6 c2 -9 -10
-13 -42 -13 -39 0 -46 -3 -46 -20 0 -17 7 -20 40 -20 22 0 40 -4 40 -10 0 -5
-18 -10 -40 -10 -33 0 -40 -3 -40 -20 0 -17 7 -20 45 -20 25 0 45 -4 45 -9 0
-9 -108 -26 -116 -19 -2 2 -6 36 -10 75 l-7 72 49 4 c67 5 77 4 82 -10z"/>
<path d="M1770 2516 c-154 -33 -334 -136 -437 -252 -76 -84 -144 -203 -179
-312 -27 -80 -29 -99 -29 -237 1 -175 13 -233 80 -370 84 -170 207 -291 380
-375 124 -60 217 -81 356 -81 223 0 410 74 567 225 169 161 254 355 255 581 2
379 -224 689 -588 805 -89 28 -305 37 -405 16z m335 -91 c133 -28 301 -128
390 -232 136 -159 206 -390 176 -581 -14 -90 -50 -202 -65 -202 -32 1 -34 16
-9 90 50 148 39 340 -26 485 -104 228 -295 370 -546 407 -151 21 -329 -22
-465 -113 -89 -59 -183 -166 -229 -261 -89 -181 -96 -334 -25 -575 5 -20 3
-23 -18 -23 -22 0 -28 8 -41 53 -33 104 -40 161 -34 277 6 130 29 213 91 324
95 169 284 309 472 350 90 19 241 19 329 1z m-55 -196 c30 -11 53 -51 53 -95
0 -34 -9 -40 -31 -21 -24 22 -38 21 -47 0 -6 -16 -8 -15 -25 7 -11 14 -20 19
-20 13 0 -19 -60 -17 -60 1 0 8 5 18 10 21 6 3 10 26 10 51 0 47 10 54 38 26
17 -17 18 -15 19 31 1 42 -1 47 -15 41 -28 -11 -122 -17 -122 -7 0 11 51 33
110 48 l45 11 3 -59 c3 -54 5 -59 32 -68z m-270 -105 c0 -48 3 -56 24 -63 27
-11 36 -30 36 -73 l0 -29 -56 7 c-66 8 -69 -9 -4 -20 44 -7 65 -31 76 -86 7
-30 5 -33 -12 -25 -45 18 -64 18 -64 -2 0 -18 -4 -18 -67 -8 -51 9 -67 16 -63
26 7 22 5 92 -4 111 -6 14 -2 16 31 13 21 -1 30 -1 21 2 -20 5 -23 18 -8 28 6
3 10 22 10 41 0 32 2 34 25 28 24 -6 25 -4 25 35 l0 42 -30 -16 c-16 -8 -39
-15 -52 -15 l-23 0 26 26 c25 24 84 46 102 37 4 -2 7 -29 7 -59z m222 -29 c87
-18 110 -38 129 -107 16 -62 7 -73 -37 -43 -44 30 -64 32 -64 5 0 -13 -7 -20
-19 -20 -24 0 -123 19 -129 24 -2 3 3 15 12 28 20 28 21 78 1 104 -20 27 -18
35 8 30 12 -3 57 -12 99 -21z m303 -165 c50 -52 104 -112 122 -132 17 -20 41
-38 53 -40 21 -3 18 -9 -36 -68 -32 -36 -76 -86 -96 -110 -71 -88 -139 -218
-94 -181 11 10 42 10 133 1 108 -10 253 -36 253 -45 0 -14 -44 -75 -55 -75 -7
0 -37 11 -66 23 -121 53 -291 76 -422 58 -43 -6 -171 -32 -285 -57 -114 -25
-265 -54 -336 -65 -120 -17 -131 -17 -148 -2 -10 9 -18 19 -18 24 0 4 28 10
63 14 64 6 172 24 195 31 10 3 8 12 -9 35 -12 17 -24 50 -27 74 l-4 43 73 6
c41 3 92 7 113 9 23 1 41 8 44 16 5 14 -9 13 -90 -5 -27 -6 -28 -6 -17 24 13
37 1 65 -45 104 l-31 28 30 -5 c17 -2 73 -9 125 -15 166 -18 163 -17 155 -48
-13 -54 -31 -71 -70 -65 -28 4 -35 2 -35 -11 0 -19 -5 -18 85 -6 122 17 135
20 135 35 0 19 -7 19 -60 0 -59 -21 -62 -19 -40 18 32 52 25 93 -28 150 -32
33 -34 33 132 11 84 -11 126 -21 139 -33 20 -20 26 -70 14 -116 l-9 -30 24 21
c13 11 51 31 86 44 34 12 62 27 62 32 0 12 -63 38 -93 38 -23 0 -24 4 -31 81
-4 45 -5 83 -3 86 3 2 14 -23 27 -57 12 -33 26 -60 31 -60 4 0 -12 60 -37 132
-24 73 -43 137 -41 141 1 5 35 -40 75 -99 94 -142 133 -194 147 -194 6 0 24
13 39 29 l27 28 -45 22 c-25 11 -56 21 -69 21 -20 0 -33 18 -84 120 -33 67
-57 119 -54 118 3 -2 47 -46 96 -98z m-400 0 c22 -5 76 -14 120 -21 44 -6 86
-16 93 -22 27 -21 45 -73 45 -125 0 -59 -7 -73 -26 -50 -21 26 -60 48 -85 48
-20 0 -23 -4 -19 -21 6 -21 4 -21 -66 -15 -40 4 -82 10 -94 13 -21 5 -22 7 -8
34 21 39 19 87 -5 132 -22 41 -20 42 45 27z m-151 -124 c48 -8 90 -17 93 -20
3 -3 -4 -17 -16 -32 l-22 -28 38 -38 c39 -40 40 -61 1 -34 -25 18 -68 22 -68
6 0 -6 10 -15 23 -20 17 -8 12 -9 -23 -5 -25 2 -70 7 -100 11 -81 9 -84 10
-66 36 21 30 20 66 -4 106 l-20 32 38 0 c20 0 77 -7 126 -14z m-127 -252 c3
-8 -14 -14 -44 -16 -57 -5 -65 -1 -38 18 23 17 76 15 82 -2z m3 -37 c0 -23
-23 -37 -61 -37 -44 0 -56 12 -33 34 19 20 94 22 94 3z m-107 -168 c-8 -7
-197 -39 -232 -39 -22 0 -57 48 -44 60 4 5 62 13 128 17 113 9 121 8 138 -11
10 -10 14 -23 10 -27z m848 -39 c76 -14 199 -52 199 -60 0 -4 -8 -17 -17 -29
l-18 -20 -85 26 c-72 22 -104 26 -215 26 -112 1 -156 -4 -315 -36 -102 -21
-227 -43 -279 -49 -117 -14 -101 -29 40 -36 86 -4 118 0 294 38 191 41 203 42
334 38 123 -5 202 -19 200 -36 0 -4 -24 -27 -52 -51 -259 -217 -618 -248 -913
-80 -81 47 -187 145 -163 153 8 2 70 9 139 16 69 6 193 25 275 42 289 60 331
66 426 67 53 1 121 -4 150 -9z"/>
<path d="M1716 1851 c-18 -7 -18 -8 -2 -14 27 -11 36 -8 36 8 0 16 -5 17 -34
6z"/>
<path d="M1945 1960 c3 -5 17 -10 31 -10 13 0 24 5 24 10 0 6 -14 10 -31 10
-17 0 -28 -4 -24 -10z"/>
<path d="M2300 1703 c0 -5 9 -23 21 -42 l20 -33 25 23 24 23 -27 18 c-28 18
-63 24 -63 11z"/>
<path d="M1971 1643 c1 -10 5 -29 9 -43 7 -22 8 -21 9 12 1 20 -3 40 -9 43 -5
3 -10 -2 -9 -12z"/>
<path d="M1730 1576 c0 -8 5 -18 10 -21 6 -3 10 1 10 9 0 8 -4 18 -10 21 -5 3
-10 -1 -10 -9z"/>
<path d="M2245 1565 c-30 -14 -30 -14 -4 -15 14 0 34 7 45 15 25 19 1 19 -41
0z"/>
<path d="M2030 1535 c0 -16 28 -19 68 -8 32 8 9 23 -35 23 -23 0 -33 -5 -33
-15z"/>
<path d="M1955 1479 c-143 -21 -291 -41 -329 -45 -105 -9 -61 -26 49 -19 160
11 537 74 575 96 24 14 -15 10 -295 -32z"/>
<path d="M1987 1424 c-14 -14 -7 -35 11 -32 9 2 17 10 17 17 0 16 -18 25 -28
15z"/>
<path d="M1890 1389 c0 -24 23 -21 28 4 2 10 -3 17 -12 17 -10 0 -16 -9 -16
-21z"/>
<path d="M1704 1379 c-10 -17 13 -36 27 -22 12 12 4 33 -11 33 -5 0 -12 -5
-16 -11z"/>
<path d="M1797 1384 c-9 -10 2 -24 19 -24 8 0 14 7 14 15 0 15 -21 21 -33 9z"/>
<path d="M1610 1366 c0 -10 9 -16 21 -16 24 0 21 23 -4 28 -10 2 -17 -3 -17
-12z"/>
<path d="M1937 1855 c8 -25 17 -44 20 -41 7 6 -16 74 -27 81 -5 3 -2 -15 7
-40z"/>
<path d="M1945 1750 c3 -5 17 -10 31 -10 13 0 24 5 24 10 0 6 -14 10 -31 10
-17 0 -28 -4 -24 -10z"/>
<path d="M2115 1103 c-16 -3 -81 -15 -143 -29 -63 -13 -134 -24 -158 -24 -25
0 -43 -4 -40 -9 10 -15 130 -31 182 -25 61 8 306 73 319 85 9 9 -100 10 -160
2z"/>
<path d="M1182 994 c-30 -21 -29 -59 3 -80 23 -15 27 -15 50 0 32 21 33 59 3
80 -12 9 -25 16 -28 16 -3 0 -16 -7 -28 -16z"/>
<path d="M2370 755 c0 -18 5 -25 20 -25 11 0 20 7 20 15 0 8 -9 19 -20 25 -18
9 -20 8 -20 -15z"/>
<path d="M1542 748 c-18 -18 -14 -38 8 -38 15 0 20 7 20 25 0 27 -9 32 -28 13z"/>
</g>
</svg>
